<svg width="33" height="32" viewBox="0 0 33 32" fill="none" xmlns="http://www.w3.org/2000/svg">
<path d="M4.5 14.6667C4.5 9.66703 4.5 7.1672 5.77321 5.41476C6.18441 4.8488 6.68213 4.35108 7.24809 3.93988C9.00053 2.66667 11.5004 2.66667 16.5 2.66667C21.4996 2.66667 23.9995 2.66667 25.7519 3.93988C26.3179 4.35108 26.8156 4.8488 27.2268 5.41476C28.5 7.1672 28.5 9.66703 28.5 14.6667V17.3333C28.5 22.3329 28.5 24.8328 27.2268 26.5852C26.8156 27.1512 26.3179 27.6489 25.7519 28.0601C23.9995 29.3333 21.4996 29.3333 16.5 29.3333C11.5004 29.3333 9.00053 29.3333 7.24809 28.0601C6.68213 27.6489 6.18441 27.1512 5.77321 26.5852C4.5 24.8328 4.5 22.3329 4.5 17.3333V14.6667Z" stroke="black" stroke-width="2" stroke-linecap="round" stroke-linejoin="round"/>
<path d="M20.5 9.33333H9.83333M13.8333 16H9.83333" stroke="black" stroke-width="2" stroke-linecap="round" stroke-linejoin="round"/>
</svg>
