<svg width="33" height="32" viewBox="0 0 33 32" fill="none" xmlns="http://www.w3.org/2000/svg">
<path d="M19.8333 29.3333L19.4127 28.7748C18.4644 27.5159 18.2292 25.5925 18.8291 24" stroke="black" stroke-width="2" stroke-linecap="round"/>
<path d="M13.1667 29.3333L13.5873 28.7748C14.5356 27.5159 14.7708 25.5925 14.1709 24" stroke="black" stroke-width="2" stroke-linecap="round"/>
<path d="M9.83333 29.3333H23.1667" stroke="black" stroke-width="2" stroke-linecap="round"/>
<path d="M16.5 9.33333C15.0272 9.33333 13.8333 10.2288 13.8333 11.3333C13.8333 12.4379 15.0272 13.3333 16.5 13.3333C17.9728 13.3333 19.1667 14.2288 19.1667 15.3333C19.1667 16.4379 17.9728 17.3333 16.5 17.3333M16.5 9.33333C17.6611 9.33333 18.6488 9.88987 19.0149 10.6667M16.5 9.33333V8M16.5 17.3333C15.3389 17.3333 14.3512 16.7768 13.9851 16M16.5 17.3333V18.6667" stroke="black" stroke-width="2" stroke-linecap="round"/>
<path d="M19.1667 2.66667H13.8333C9.46103 2.66667 7.27488 2.66667 5.72521 3.75176C5.15188 4.1532 4.6532 4.65189 4.25176 5.22522C3.16667 6.77489 3.16667 8.96103 3.16667 13.3333C3.16667 17.7056 3.16667 19.8917 4.25176 21.4415C4.6532 22.0148 5.15188 22.5135 5.72521 22.9149C7.27488 24 9.46103 24 13.8333 24H19.1667C23.5389 24 25.7251 24 27.2748 22.9149C27.8481 22.5135 28.3468 22.0148 28.7483 21.4415C29.8333 19.8917 29.8333 17.7056 29.8333 13.3333C29.8333 8.96103 29.8333 6.77489 28.7483 5.22522C28.3468 4.65189 27.8481 4.1532 27.2748 3.75176C25.7251 2.66667 23.5389 2.66667 19.1667 2.66667Z" stroke="black" stroke-width="2" stroke-linecap="round"/>
</svg>
