<svg width="33" height="32" viewBox="0 0 33 32" fill="none" xmlns="http://www.w3.org/2000/svg">
<path d="M3.83333 16C3.83333 10.0289 3.83333 7.04333 5.68832 5.18835C7.54332 3.33336 10.5289 3.33336 16.5 3.33336C22.4711 3.33336 25.4567 3.33336 27.3117 5.18835C29.1667 7.04333 29.1667 10.0289 29.1667 16C29.1667 21.9712 29.1667 24.9567 27.3117 26.8117C25.4567 28.6667 22.4711 28.6667 16.5 28.6667C10.5289 28.6667 7.54332 28.6667 5.68832 26.8117C3.83333 24.9567 3.83333 21.9712 3.83333 16Z" stroke="black" stroke-width="2"/>
<path d="M3.83333 12H29.1667" stroke="black" stroke-width="2" stroke-linejoin="round"/>
<path d="M9.83308 8.00003H9.84505" stroke="black" stroke-width="2.66667" stroke-linecap="round" stroke-linejoin="round"/>
<path d="M15.1664 8.00003H15.1784" stroke="black" stroke-width="2.66667" stroke-linecap="round" stroke-linejoin="round"/>
<path d="M23.1667 22.6667C23.1667 18.9848 20.1819 16 16.5 16C12.8181 16 9.83333 18.9848 9.83333 22.6667" stroke="black" stroke-width="2" stroke-linecap="round"/>
<path d="M17.4427 20.3907L15.5571 22.2763" stroke="black" stroke-width="2" stroke-linecap="round" stroke-linejoin="round"/>
</svg>
