<svg width="32" height="32" viewBox="0 0 32 32" fill="none" xmlns="http://www.w3.org/2000/svg">
<path d="M21.3333 29.3333C19.912 27.6737 18.0449 26.6667 16 26.6667C13.9551 26.6667 12.088 27.6737 10.6667 29.3333" stroke="black" stroke-width="2" stroke-linecap="round"/>
<path d="M16 17.3333C14.3092 17.3333 12.5215 17.6257 11.12 18.0171C10.0648 18.3117 9.21593 19.6553 9.34665 20.7461C9.39509 21.1503 9.74308 21.3333 10.109 21.3333H21.8911C22.2569 21.3333 22.6049 21.1503 22.6533 20.7461C22.7841 19.6553 21.9352 18.3117 20.88 18.0171C19.4785 17.6257 17.6908 17.3333 16 17.3333Z" stroke="black" stroke-width="2" stroke-linecap="round"/>
<path d="M28 13.3333C26.5272 13.3333 25.3333 14.5272 25.3333 16V17.3333C25.3333 18.8061 24.1395 20 22.6667 20" stroke="black" stroke-width="2" stroke-linecap="round" stroke-linejoin="round"/>
<path d="M4 13.3333C5.47276 13.3333 6.66667 14.5272 6.66667 16V17.3333C6.66667 18.8061 7.86057 20 9.33333 20" stroke="black" stroke-width="2" stroke-linecap="round" stroke-linejoin="round"/>
<path d="M16 21.3333V29.3333" stroke="black" stroke-width="2" stroke-linecap="round" stroke-linejoin="round"/>
<path d="M17.0929 13.3333H14.9071C13.0375 13.3333 12.1027 13.3333 11.4265 12.7686C10.7503 12.2038 10.5236 11.2337 10.0701 9.29352C9.35723 6.24304 9.00077 4.71781 9.74932 3.69225C10.4979 2.66667 11.9676 2.66667 14.9071 2.66667H17.0929C20.0324 2.66667 21.5021 2.66667 22.2507 3.69225C22.9992 4.71781 22.6428 6.24304 21.9299 9.29352C21.4764 11.2337 21.2497 12.2038 20.5735 12.7686C19.8973 13.3333 18.9625 13.3333 17.0929 13.3333Z" stroke="black" stroke-width="2" stroke-linecap="round" stroke-linejoin="round"/>
<path d="M16 13.3333V17.3333" stroke="black" stroke-width="2" stroke-linecap="round" stroke-linejoin="round"/>
</svg>
