<svg width="32" height="32" viewBox="0 0 32 32" fill="none" xmlns="http://www.w3.org/2000/svg">
<path d="M8 12V22.2455C8 24.6603 8 25.8677 8.78105 26.618C10.5332 28.3009 21.1411 28.6139 23.2189 26.618C24 25.8677 24 24.6603 24 22.2455V12" stroke="black" stroke-width="2" stroke-linecap="round"/>
<path d="M7.65431 16L4.05762 12.5189C3.13033 11.6214 2.66667 11.1726 2.66667 10.615C2.66667 10.0573 3.13033 9.60859 4.05762 8.71108L6.72558 6.12886C7.18784 5.68143 7.41898 5.45772 7.69451 5.29291C7.97005 5.1281 8.28015 5.02804 8.90035 4.82795L11.0948 4.11996C11.4157 4.01644 11.5761 3.96468 11.6852 4.02691C11.7943 4.08915 11.8288 4.2684 11.8977 4.62691C12.2581 6.50246 13.9577 7.92247 16 7.92247C18.0423 7.92247 19.7419 6.50246 20.1024 4.62691C20.1712 4.2684 20.2057 4.08915 20.3148 4.02691C20.4239 3.96468 20.5843 4.01644 20.9052 4.11996L23.0996 4.82795C23.7199 5.02804 24.03 5.1281 24.3055 5.29291C24.5811 5.45772 24.8121 5.68143 25.2744 6.12886L27.9424 8.71108C28.8697 9.60859 29.3333 10.0573 29.3333 10.615C29.3333 11.1726 28.8697 11.6214 27.9424 12.5189L24.3457 16" stroke="black" stroke-width="2" stroke-linecap="round" stroke-linejoin="round"/>
</svg>
